<?xml version="1.0" standalone="no"?>
<!DOCTYPE svg PUBLIC "-//W3C//DTD SVG 20010904//EN"
 "http://www.w3.org/TR/2001/REC-SVG-20010904/DTD/svg10.dtd">
<svg version="1.0" xmlns="http://www.w3.org/2000/svg"
 width="260.000000pt" height="260.000000pt" viewBox="0 0 260.000000 260.000000"
 preserveAspectRatio="xMidYMid meet">
<metadata>
Created by potrace 1.11, written by Peter Selinger 2001-2013
</metadata>
<g transform="translate(0.000000,260.000000) scale(0.100000,-0.100000)"
fill="#000000" stroke="none">
<path d="M752 2530 c6 -84 -1 -87 -78 -34 -43 30 -64 37 -116 41 -78 6 -102
-10 -149 -96 -26 -50 -38 -62 -79 -79 -41 -17 -52 -28 -81 -82 -31 -59 -67
-90 -105 -90 -9 0 -32 -16 -51 -35 -34 -34 -35 -38 -30 -87 4 -28 22 -85 42
-126 50 -105 49 -105 -35 -97 -59 6 -70 5 -70 -8 0 -9 15 -20 34 -27 47 -15
68 -42 73 -95 7 -57 -14 -114 -68 -186 l-40 -54 4 -125 c7 -168 18 -223 63
-308 42 -81 54 -159 32 -202 -7 -14 -32 -34 -55 -45 -57 -26 -57 -50 -2 -58
65 -9 68 -17 36 -105 -36 -104 -36 -164 1 -201 15 -16 44 -31 67 -35 52 -10
61 -18 96 -88 23 -46 38 -62 67 -75 20 -8 44 -19 52 -22 8 -4 30 -36 48 -71
18 -35 41 -69 50 -76 30 -23 142 -17 196 10 27 14 54 22 62 19 7 -2 16 -25 20
-49 8 -54 38 -63 49 -14 10 47 57 80 116 80 60 0 104 -17 172 -67 l51 -38 176
0 176 0 51 38 c68 50 112 67 172 67 59 0 106 -33 116 -80 5 -21 13 -30 26 -30
16 0 19 7 19 44 0 65 16 72 85 36 42 -22 70 -30 109 -30 70 0 96 16 127 78 30
61 66 102 89 102 27 0 59 29 81 73 31 61 58 86 105 98 94 24 114 101 60 236
-35 87 -28 103 40 103 37 0 44 3 44 19 0 13 -9 21 -30 26 -16 4 -41 21 -56 38
-23 28 -26 38 -22 93 3 50 11 73 43 125 33 54 40 76 51 161 19 147 1 272 -51
357 -32 52 -40 75 -43 125 -4 55 -1 65 22 93 15 17 40 34 56 38 17 4 30 13 30
21 0 11 -16 14 -65 14 -78 0 -78 1 -34 103 59 135 48 201 -38 233 -61 22 -89
47 -120 107 -18 36 -34 52 -61 64 -51 21 -68 38 -103 104 -17 32 -41 61 -55
68 -56 25 -152 8 -211 -39 -14 -11 -34 -20 -44 -20 -17 0 -19 8 -19 65 0 48
-3 65 -14 65 -7 0 -16 -14 -20 -30 -7 -40 -50 -78 -89 -82 -72 -7 -123 13
-226 87 -33 24 -40 25 -201 25 -161 0 -168 -1 -201 -25 -103 -74 -154 -94
-226 -87 -39 4 -82 42 -89 82 -4 17 -13 30 -21 30 -13 0 -15 -12 -11 -70z
m-144 -34 c15 -8 33 -25 39 -38 34 -66 8 -118 -70 -138 -82 -21 -97 -31 -130
-88 -25 -43 -44 -62 -81 -81 -50 -26 -66 -50 -86 -128 -20 -79 -70 -109 -126
-74 -60 37 -83 134 -44 184 11 14 37 31 58 38 48 15 78 43 106 97 16 32 36 51
71 70 36 20 57 41 81 81 17 30 42 63 54 73 27 22 90 24 128 4z m1512 -4 c12
-10 37 -43 54 -73 24 -40 45 -61 81 -81 35 -19 55 -38 71 -70 28 -54 58 -82
106 -97 74 -24 98 -93 58 -171 -36 -70 -112 -87 -146 -34 -9 12 -21 45 -28 72
-19 70 -29 84 -83 113 -35 19 -56 40 -80 81 -33 57 -48 67 -130 88 -79 20
-109 85 -67 144 33 47 122 62 164 28z m-1871 -1856 c12 -13 28 -46 35 -73 19
-72 29 -85 83 -114 34 -19 56 -40 79 -79 34 -59 46 -67 117 -86 101 -26 128
-95 63 -160 -29 -29 -41 -34 -83 -34 -57 0 -80 18 -123 98 -18 34 -38 54 -74
74 -36 19 -56 38 -72 70 -28 54 -58 82 -106 97 -49 16 -78 54 -78 100 0 37 29
96 59 118 27 21 75 15 100 -11z m2202 11 c30 -22 59 -81 59 -118 0 -46 -29
-84 -78 -100 -48 -15 -78 -43 -106 -97 -16 -32 -36 -51 -72 -70 -36 -20 -56
-40 -74 -74 -43 -80 -66 -98 -123 -98 -42 0 -54 5 -83 34 -65 65 -38 134 63
160 71 19 83 27 117 86 23 39 45 60 79 79 54 29 64 42 83 114 16 63 48 97 88
97 17 0 38 -6 47 -13z"/>
</g>
</svg>
