<svg version="1" xmlns="http://www.w3.org/2000/svg" width="346.667" height="346.667" viewBox="0 0 260.000000 260.000000"><path d="M124.8 7.7c.7.3 1.6.2 1.9-.1.4-.3-.2-.6-1.3-.5-1.1 0-1.4.3-.6.6zM127.6 8.8c-.3.5 1.5 1.5 3.9 2.2 2.5.7 4.3 1.5 4.1 1.8-.3.2-2.6-.3-5.2-1.2-2.6-.9-5.2-1.6-5.6-1.6-.5 0-.8 5.5-.6 12.2.3 11.4.4 12.3 2.3 12.5l2 .3-2-.9c-1.4-.7-1.5-1-.5-1 1.8-.1 20.3 9 19.6 9.6-.2.3-1.3 0-2.4-.6-1.2-.6-2.7-1.1-3.4-1.1-.7.1.2.7 2.1 1.6 1.9.8 4.2 1.2 5.3.9 1-.4 1.8-.2 1.8.3s1.4 1.5 3 2.2c1.7.7 2.9 1.4 2.7 1.6-.2.3-2.1-.3-4.1-1.1-2.1-.9-3.5-1.1-3.1-.6.3.6 1.2 1.1 1.8 1.1.7 0 3.2 1.4 5.6 3 2.4 1.7 4.9 3 5.5 3 .6-.1-.4-.9-2.2-1.8-1.8-1-3-2.1-2.6-2.4.6-.7 5.1 2.1 8.9 5.6l2 1.8-2.2-1.1c-3.3-1.7-4.2-1.2-1 .5 1.5.8 3.1 1.3 3.6 1 .4-.3 1.9.6 3.2 2.1 2.4 2.5 2.4 2.6.2 1.4-1.3-.6-2.3-1.7-2.3-2.3 0-.6-.3-.8-.7-.5-.3.4 1.1 2.5 3.3 4.7 4.1 4.2 7 5.5 3.8 1.7-1.7-2-1.6-2 .9.2 2.8 2.5 3.6 3.8 1.6 2.5-.7-.4-1-.1-.7.7.3.8 1 1.4 1.5 1.4.6 0 1.5.4 2 .9.4.5.4.7-.2.4-.5-.3-1.6.1-2.3.8-1.1 1.2-1 1.4 1.2 1 1.5-.3 3 .2 3.8 1.2 1 1.2 1 1.4.1.8-.8-.4-1.3-.1-1.3.8s-.4 1.6-1 1.6c-.5 0-.7-.8-.3-1.8.3-.9.3-1.4-.2-1-1.4 1.3-4.5-1.1-3.8-2.9.4-1 .2-1.4-.4-1-.6.4-3.7-1.5-7-4.1-3.2-2.6-8-6.3-10.8-8.1-2.7-1.9-4.2-3.1-3.2-2.7 4.4 1.6 5 1.6 2.4.1-1.6-.9-3.3-1.5-4-1.2-.6.2-3.7-1.1-6.7-2.8-3-1.8-6.5-3.6-7.7-3.9-1.4-.4-2-1.2-1.6-2.1.5-1.5-2.3-3-7.5-4-1.5-.3-.5.3 2.1 1.3 2.7.9 4.5 2 4.2 2.4-.3.3-1.8 0-3.3-.7-1.5-.8-3.9-1.7-5.4-2l-2.8-.7v9.9c0 9.4.1 10 2.3 11 11.8 5.6 23.7 11.7 23.4 12-.5.5-6-1.9-6.7-2.9-.7-1-9.2-3.9-9.7-3.4-.2.2 1.3 1 3.4 1.7 2.1.6 5 2.1 6.4 3.2 1.5 1 4 2 5.5 2.1 3.2.3 9.6 3.5 13.4 6.6 2.2 1.9 2.2 2 .3 1.1-3.1-1.6-4.3-1.3-1.4.3 1.4.8 3.2 1.1 4 .8 1-.4 1.3-.1.8 1.1-.4 1.1.1 2 1.6 2.7 2.1 1.1 2.1 1.1.3-.4-1.1-.9-1.5-1.6-1-1.6s3.4 2.5 6.4 5.6c3 3.1 4.9 5.3 4.1 4.9-1.1-.6-1.3-.4-.8.9.4 1.1.3 1.5-.4 1.1-.6-.4-.8-1.3-.5-2.1.6-1.6-.9-1.9-1.9-.5-.3.6.9 2.4 2.6 4.2l3.2 3.3-.6-3c-.6-2.6-.6-2.7.5-.7.6 1.3 1.5 2.3 1.9 2.3.5 0 .7 1 .5 2.2-.1 1.3-.7 2.2-1.2 2-.5-.2-.8-1-.6-1.9.2-.8-.1-1.3-.5-1-.5.3-3.4-1.9-6.3-4.9-3-3.1-6.7-6.3-8.2-7.2-1.6-.9-2.8-1.9-2.8-2.3 0-.4-1.3-1.2-3-1.9-1.6-.7-3-1.6-3-2 0-.5-1.6-1.4-3.5-2-3.5-1.2-4.5-2.5-2.3-3.2.6-.2-.8-1.2-3.1-2.2-2.4-.9-4.5-1.5-4.8-1.2-.2.2 1.2.9 3.1 1.6 2 .6 3.4 1.5 3.1 2-.5.8-8.7-2.9-9.3-4.3-.2-.4-.9-.7-1.5-.7-.7 0-3.4-1.1-6.2-2.5-2.7-1.3-5.6-2.5-6.2-2.5-1 0-1.3 2.6-1.3 9.9v9.9l4.6 1.1c2.6.7 4.5 1.4 4.2 1.6-.2.3-2.1 0-4.2-.6s-4-.8-4.3-.5c-.3.2 1.1.8 3.1 1.1 2 .4 3.9 1.1 4.2 1.7.3.5 1.1.5 1.8-.2 1.6-1.2 16 5.8 27 13.2 8.6 5.8 18.7 16.1 17.2 17.5-.3.4-.6.1-.6-.7 0-.9-.3-1-1.3-.2s-2.4.1-5.7-2.9c-2.5-2.3-3.5-3.6-2.2-3 1.2.7 2.2.9 2.2.5 0-.3.7-.1 1.5.6s1.3 1.6 1 2c-.6 1 2 3.2 2.8 2.4 1.1-1.1-3.4-6.6-4.9-6-.8.3-1.1 0-.8-.9.4-.9-.4-1.9-2-2.6-1.4-.7-2.6-1.6-2.6-2 0-1.2-4.1-3.2-7-3.4-1.4-.2-3.4-.6-4.5-.9-1.1-.4-.8 0 .8.9 1.5.9 3.2 1.3 3.6 1 1.2-.7 6.1 1.5 6.1 2.8 0 .5-.7.6-1.5.3-3.9-1.6-5-1.7-3-.5 1.1.7 2.7 1.3 3.5 1.4 2.7.3 6 1.6 6 2.5 0 1.1-4.1.9-5.5-.3-2.7-2.2-12.6-8-18.9-11-12-5.8-18.4-8.7-19.5-8.7-.5 0-1.1 4.1-1.3 9.5-.3 8.6-.1 9.4 1.4 8.9 1.3-.4 1.6-.1 1.2 1-.3.8-2.8 2-5.5 2.6-2.7.7-5.2 1.6-5.5 2.1-.3.6-1.4.7-2.5.4-2.2-.7-11.9 2.2-11.9 3.6 0 .5.6.9 1.3.9.6.1-.3.7-2.2 1.5-4.2 1.9-6.6 1.8-2.6 0 1.7-.8 2.3-1.4 1.5-1.4-1.8 0-7 2.8-5.2 2.9.6 0 1.2.4 1.2.8s-1.6.8-3.5.8-4.1.6-4.8 1.3c-1 1.1-.9 1.3.3.8.8-.3 2.4-.8 3.5-1.2 1.1-.4-.5.9-3.5 2.9s-5.9 3.6-6.5 3.6c-.5-.1.6-.9 2.5-2 4.1-2.3 3.2-2.7-1-.5-1.8.9-2.7 2.1-2.4 2.9.3.9-.4 1.9-1.8 2.6-2.2 1.1-2.2 1-.4-.4 1.1-.9 1.5-1.6.9-1.6-1.4 0-2.7 1.9-2.8 3.9 0 .8-.7 1.6-1.5 1.8-1.3.4-1.3.3 0-.6.8-.6 1-1.1.4-1.1-1.8 0-3.7 2.8-3 4.5.3.8.1 1.5-.4 1.5-.6 0-1-.6-1.1-1.3 0-.6-.7.1-1.4 1.8-.8 1.6-1.4 5.7-1.4 9-.1 9.2 1.2 23.1 1.9 21.1.3-1 .3-4.3-.1-7.4-.4-3.2-.7-8.9-.7-12.7.1-6.5.1-6.2.9 3 .4 5.5 1.3 13.1 2 16.9.6 3.8.8 9.1.5 11.9-.9 6.1.5 29.7 1.4 25.2.6-2.8.7-2.7 1.9 2.3.7 2.9 1 6.4.7 7.8-.4 1.6-.1 3.3 1 4.7 1.5 2 1.6 2 1 .2-.5-1.5.3-1 3.1 1.6 2.1 2 6.1 5.1 8.8 6.9 2.8 1.8 4.2 3 3.3 2.6-4.5-1.6-5.1-1.6-2.5-.1 1.5.9 3.7 1.3 4.7 1 1.2-.4 2-.2 2 .4 0 .6-.6 1.1-1.2 1.2-1.8.1 4.3 2.8 6.2 2.8.8 0-.1-.7-2-1.4s-2.8-1.4-2-1.4c.9-.1 3.3.8 5.5 1.9 2.1 1.1 6.3 2.7 9.4 3.5 3.1.9 6.5 2 7.6 2.5 1.1.5 2.7 1.1 3.5 1.4.8.3-.7.4-3.5.2-4.9-.5-5-.5-1.2.6 5.6 1.5 6.5.8 6.9-6.1.1-3.2.1-5.9-.2-5.9-.3 0-1.2 0-2-.1-1.2-.1-1.3-.3-.1-1 1-.7.5-1.1-1.7-1.6-1.8-.3-3.6-.4-4.2 0-.5.3-1.7.2-2.6-.3-1.4-.8-1.3-1 .9-1.6 1.4-.3 3.7-.2 5.2.4 4.2 1.6 4.5 1.3 4.7-4.3l.1-5.2.7 5 .7 5 .1-4.5c.2-5.3-.4-6.4-3.7-6.8-3.4-.5-7.5-2.1-6.9-2.8.3-.2 1.7.1 3.1.7 2.1.9 2.9.9 4-.3 1.5-1.5 2.9-13.1 1.5-12.2-.4.3-.8.1-.8-.4 0-.6-1.6-1.3-3.6-1.7l-3.7-.6 2.8-1.5c1.6-.8 3.5-1.2 4.2-1 1 .4 1.3-.9 1.5-5.2l.1-5.7.7 5.5.7 5.5-.1-6c-.1-4.4-.5-5.9-1.4-5.7-.8.1-1.1-.2-.7-.8.3-.6-.4-1-1.7-1.1-1.3 0 .2-.7 3.2-1.5s6.9-2.1 8.7-3c1.7-.8 4.6-1.6 6.5-1.9 3.1-.4 3.1-.4-.7.9-2.2.8-3.1 1.4-2 1.4 2.6 0 9.6-2.6 7.3-2.7-3.3-.2-1.8-1.8 2.7-3.1 2.5-.7 4.8-1.7 5.1-2.2.3-.4 1-.5 1.7-.1.6.4-1.1 1.5-3.9 2.5-2.7 1-3.7 1.6-2.2 1.3 5-.9 7.8-2.4 7.3-3.8-.6-1.5 5.6-4.9 9.2-5.1 2.3-.2 8.8-6 8.8-8 0-.6.8-2.2 1.8-3.6.9-1.3 1.7-2 1.7-1.6 0 .5-.7 1.8-1.7 2.8-.9 1-1.1 1.8-.5 1.8 1.8 0 2.9-3.1 3.1-8.5.1-2.7.5-6.5 1-8.5.5-1.9 1.2-8.2 1.6-14 .4-5.8 1.1-13.7 1.7-17.5.5-3.9 1.6-13.1 2.3-20.5 1.3-12.6 1.4-12.8.9-3.5-.2 5.5-.6 14.3-.9 19.5l-.4 9.5 1-8c1.2-9.6 2.3-42.5 1.9-56-.2-4-2.1-9-3-7.5-.5.7-1.1.5-2.1-.6-.9-1.2-1-1.5-.1-1 1.6 1 1.5.1-.3-3.4-.8-1.6-2.1-2.7-2.8-2.4-.7.2-3-1.4-5.1-3.6-2.1-2.2-4.2-4-4.7-4-.4 0-.6-.6-.3-1.3.6-1.6-4.3-6-5.1-4.7-.4.6-.2 1 .2 1 .5 0 1.8.7 2.9 1.6 1.8 1.4 1.8 1.4-.6.3-1.4-.7-3.7-2.1-5.1-3.3-3-2.4-4.6-3.4-10.9-7.4-2.5-1.5-5.4-3.3-6.5-4-1.1-.6-3.7-1.9-5.7-2.8-3.9-1.7-4.8-2.9-2.5-3.7.6-.2-.6-1-2.8-1.7-2.2-.7-4.5-1.7-5.2-2.2-.7-.5-1.3-.5-1.7 0zM182.5 47c.3.6-.1.7-.9.4-1.8-.7-2.1-1.4-.7-1.4.6 0 1.3.4 1.6 1zm-73 74.2c-1.6.6-3.5 1.5-4.1 1.9-.6.5-1.4.6-1.8.2-.8-.8 4.9-3.1 7.4-3.1.8 0 .2.4-1.5 1zm42.5 4.3c2.8 1.6 1.9 2-1 .5-1.1-.6-3.2-.7-4.7-.3-2.7.7-2.7.8 1.2 1.4l4 .5-3.5 1.6c-6.4 2.8-7.5 3.1-13.5 3.4-3.3.3-8.2 1.1-11 1.9l-5 1.4 5-.3c2.8-.2 7-.9 9.4-1.6 2.3-.6 4.5-.9 4.8-.7.2.3-1.1.8-2.9 1.2-1.8.4-5.2 1.6-7.5 2.6-2.3 1.1-4.8 1.9-5.5 1.9-.7 0-2.5.6-3.9 1.4-4.4 2.3-13.3 5-15.4 4.8-1.4-.2-1.6 0-.7.6.9.6.1 1.3-2.8 2.2-2.2.7-4 1.7-4 2.2 0 .5-1.2.6-2.7.2-2-.4-2.4-.3-1.4.4 1.1.8.9 1.1-.8 1.7-1.1.3-2.1 1-2.1 1.4 0 .5-1.3 1.4-3 2.1-1.6.7-3 1.7-3 2.2 0 .5-.4.7-.9.4-.5-.4-1.1 0-1.3.6-.3.7-1.7 1.3-3.2 1.3-2.7.1-2.7 0 2.2-4.5 6.9-6.2 7.9-7 8.6-6.2.4.3-.4 1.2-1.6 1.9l-2.3 1.3 2.5-.4c1.4-.3 2.8-.5 3.3-.5.9-.1.5-2.4-.6-3.2-1.4-1 14.6-8.4 17.8-8.2 2.5.2 2.7.1 1-.6-1.1-.5-1.4-1-.7-1 .7-.1 3.3-1 5.7-2.1 2.4-1.1 6.7-2.5 9.5-3.2 2.7-.6 5-1.5 5-1.9 0-.3 2.1-1.2 4.7-1.9 2.6-.6 5.3-1.6 5.9-2.1.6-.5 2-.6 3-.2 1.4.5.2 1.2-4.6 2.4l-6.5 1.8 5.5-.6c3-.3 7.3-1.2 9.5-1.9 2.2-.8 2.7-1.1 1.2-.8-1.9.3-2.6.1-2.2-.6.3-.5-.2-1-1.2-1.1-1 0-.3-.6 1.7-1.4 4.5-1.7 5-1.7 8 0zm12.4 13.1l-2.9 1.4 3.5-.6 3.5-.6-2.5 1.9c-3.6 2.8-8.9 5.3-9.5 4.4-.2-.5 1.5-1.4 3.8-2.1 3.9-1.2 4.1-1.3 1.9-2.3l-2.2-1 2.7-1.7c1.6-1 3.2-1.5 3.7-1.2.5.3-.4 1.1-2 1.8zm-4.8 2.1c1.3.5.6 1-2.7 1.9-2.4.7-4.5 1.1-4.7.9-.3-.2.7-.7 2.2-1.1 1.4-.3 2.6-1 2.6-1.5 0-1.1.3-1.1 2.6-.2zm-4.3 5.3c.6.5-10.1 6-11.8 6-.4 0-2.6.9-5.1 2.1-2.5 1.1-5.1 1.8-5.7 1.5-.7-.2-.3-.5.8-.6l2-.1-2-.9c-1.1-.5-2.9-.9-4-.9h-2l2 .9c1.8.8 1.8.9-.5.9-1.4.1-4.7.8-7.5 1.6l-5 1.5 4.7-.5c2.7-.2 5.8-.6 7-.8 1.3-.2.8.1-.9.6-1.8.6-3.3 1.4-3.3 1.9 0 .4-1.9.5-4.2.2-2.5-.2-6.4.2-9.3 1.1-4.9 1.5-4.9 1.5-1 1.1 2.2-.3 5.6-.7 7.5-1l3.5-.6-3 1.1c-1.6.6-4.4 1.7-6.2 2.5-1.7.8-3.4 1.4-3.7 1.4-.4 0-3.6 1.3-7.1 3-3.5 1.6-6.8 3-7.4 3-.5 0-1.1.5-1.3 1.1-.2.7-1.2.7-2.8.1-1.8-.7-2.9-.6-3.8.4-1 1.1-1 1.4-.1 1.4.7 0 1 .2.7.5-.3.3-1.3.3-2.2-.1-1.4-.5-1.3-.9.8-2.5 3.5-2.8 21.7-11.9 23.7-11.9 1 0 2.1-.5 2.4-1 .4-.6 1.1-.8 1.6-.5.5.4.9.2.9-.3 0-.4 2.4-1.4 5.3-2.1 2.8-.8 5.7-1.7 6.2-2.2.6-.4 3.3-1.3 6-2 2.8-.6 5.5-1.6 6.1-2 .5-.5 2.1-.6 3.5-.3 1.8.4 2.1.3.9-.4-1.1-.8-.4-1.3 3.3-2.3 2.6-.6 4.7-1.5 4.7-2 0-1 5-.1 6.3 1.1zm21.4 2.9c.1 1.1-.8 2.7-2 3.8-2.2 1.8-2.2 1.8-.4-.3 2-2.4 2.2-3.8.5-2.8-.9.5-.9.2.1-.9 1.7-2.1 1.6-2.1 1.8.2zm-6.6 8.6c-5.2 4.3-9.7 6.3-11.5 5.3-1-.5-2-.7-2.3-.4-.3.3.2.8 1.1 1.2 1.4.5 1.2 1-1.4 2.5-1.7 1.1-3.6 1.6-4.3 1.2-.6-.4.3-1.2 2.4-1.9 4.4-1.6 1.9-1.8-3.3-.2-3.8 1.1-3.9 1.2-1.7 2.4 2.2 1.1 2.1 1.2-2.1 2.5-2.5.7-4.7 1.6-5 2-.3.4-2.5 1.2-5 1.9s-4.9 1.5-5.5 2c-.5.4-3.5 1.3-6.5 2s-6.1 1.8-6.9 2.4c-.8.6-1.7 1-2 1-.3-.1-1.5.2-2.6.6-1.1.4-3.5 1.1-5.2 1.4-1.8.4-3.5 1.2-3.8 1.7-.8 1.1-2.5 1.2-2.5 0 0-.5 2.4-1.5 5.3-2.4 2.8-.8 4.3-1.6 3.2-1.6-1.1-.1-3.5.3-5.3.8-1.7.5-3.2.8-3.2.6 0-.7 8.3-4.3 11.5-5.1 1.7-.4 3.5-1 4-1.5.6-.4 3.3-1.3 6-2 2.8-.6 5.5-1.5 6-1.9.6-.4 3.9-1.6 7.5-2.6s6.7-2.1 7-2.4c.3-.4 2.3-1.3 4.4-2 2.2-.7 6.1-2.5 8.7-4.1 2.6-1.5 5-2.5 5.3-2.2.3.4.6.2.6-.4 0-.6 1.4-1.6 3-2.3 1.7-.7 3-1.6 3-2.1s.8-.4 1.9.3c1.8 1.1 1.7 1.2-.8 3.3zm1.5 14c-2.1 1.9-4.2 3.5-4.8 3.5-.5 0 .9-1.6 3.2-3.5 2.3-1.9 4.4-3.5 4.7-3.5.3 0-1.1 1.6-3.1 3.5zm-94.1 12.8c0 .7.5 1.2 1 1.3 1.6.1 6.5 2.7 6.5 3.4 0 .4 1.8 1.5 4 2.5s4 2.1 4 2.5c0 .5 1.2 1.1 2.7 1.5 2.1.5 2.4.8 1.3 1.5-.8.5-1.1 1.2-.7 1.6.3.4 1.3.2 2.1-.5 1-.9 2-.8 4.2.4 5.1 2.6 12.3 5.5 15.4 6.2l3.1.6-2.7 1.3c-1.5.8-3.2 1.1-3.8.6-.6-.5-3-1.4-5.3-2.1-4-1.1-5.8-3-3-3.2.6 0-.6-.7-2.7-1.5-2.2-.8-4.1-1.2-4.4-1-.2.3.7.8 2.2 1.2 1.4.3 2.6 1 2.6 1.5s-.2.9-.4.9c-.7 0-15.8-8.1-17.3-9.3-5.9-4.7-11-9.9-11-11.2 0-1.1.3-1.3 1.1-.5.6.6 1.1 1.6 1.1 2.3zm-4.8 8.9c-.3.8-.6.5-.6-.6-.1-1.1.2-1.7.5-1.3.3.3.4 1.2.1 1.9zm.6 10.3c.4 5.4.4 6.1-.3 3-.9-4-1.3-11.2-.6-10.4.2.2.6 3.5.9 7.4zm6.7-.9c0 .8-.5 1.2-1 .9-.6-.4-.8-1.1-.5-1.6.9-1.4 1.5-1.1 1.5.7zm4.3 3.9c-.3.8 0 1.5.6 1.5s1.1-.4 1.1-.9 1.8 0 4 1.2c4.3 2.4 4.8 3.2 2.6 4-1 .4-1.3.1-.9-.9.3-.7 0-1.4-.6-1.4s-1.1.5-1.1 1.1c0 .5-.5.7-1.1.3-.8-.4-.7-.9.2-1.5.8-.5 1.1-.9.7-.9-.3 0-1.4-.3-2.4-.7-1.2-.5-1.5-.3-.9.6.6 1 .3 1.1-1.3.2-1.1-.6-2-2-1.9-3 0-1.1.5-1.8.9-1.5.4.3.5 1.1.1 1.9zm16.5 9.2c-.8 1-.6 1.3.6 1.3.9 0 1.6-.4 1.6-.9s2.4 0 5.3 1c2.8 1.1 5.8 2.2 6.6 2.5.8.2 1.1.7.7 1.1-.3.3-1.8 0-3.2-.7-2.2-1.2-2.7-1.2-3.4 0-.7 1.2-1.2 1.2-2.2.2-.9-.9-.8-1.2.8-1.3 1.8 0 1.8-.1-.1-.9-1.1-.5-2.7-.9-3.5-.9-1.3-.1-1.3 0 0 1 2.5 1.7-3.1 0-6.2-2l-2.8-1.7h3.5c2.7 0 3.2.3 2.3 1.3zm-19 2.2c2.7 2.3 2.8 3 .5 2.7-1-.2-1.8-.8-1.8-1.5 0-.6-.7-1.6-1.5-2.1s-1-1-.5-1c.6.1 2 .9 3.3 1.9zm7 6.8c-1.2 1.5-3 .4-3.4-2.1-.2-1.2.3-1.3 2.2-.4 1.9.9 2.1 1.4 1.2 2.5zm25.7-2.7c1.3.5 1.4.9.5.9-.8 0-2.4-.4-3.5-.9-1.3-.5-1.4-.9-.5-.9.8 0 2.4.4 3.5.9zm8.2.6c-.3.3-1.2.4-1.9.1-.8-.3-.5-.6.6-.6 1.1-.1 1.7.2 1.3.5zM96 227c1.2.8 1.2 1 .1 1-1.1 0-1.1.3 0 1.7 1.3 1.5 1.2 1.5-1.1.3-1.7-.9-2-1.5-1.1-1.8 1.1-.4 1.1-.6 0-1.3-.8-.5-.9-.9-.4-.9.6 0 1.7.5 2.5 1zm3.5 2c.3.5.1 1-.4 1-.6 0-1.1-.5-1.1-1 0-.6.2-1 .4-1 .3 0 .8.4 1.1 1zm5 2c1.8.8 1.8.9.2.9-1 .1-1.5.5-1.2 1.1.3.5.2 1-.4 1-.5 0-1.3-.5-1.6-1-.3-.6 0-1 .7-1 .9 0 .9-.3-.2-1-1.8-1.2-.2-1.2 2.5 0zm5 2c.3.5.2 1-.4 1-.5 0-1.7.3-2.7.7-1.6.6-1.7.5-.4-1 1.7-1.9 2.6-2.1 3.5-.7z"/><path d="M116 136.8c0 .5-1.7 1.3-3.7 1.9-3.7 1-3.7 1-.8 1.2 1.7 0 5.3-.6 8-1.4 3.6-1.1 4.1-1.4 1.8-1.2-1.8.2-3.3 0-3.3-.5 0-.4-.4-.8-1-.8-.5 0-1 .4-1 .8zM105.5 142c-2.2.5-5.1 1.3-6.5 1.9-2.4 1.1-2.4 1.1.5.5 1.7-.3 4.4-.8 6.2-1 1.7-.2 4.2-.8 5.5-1.3 2-.8 2-1 .3-.9-1.1 0-3.8.4-6 .8zM92.5 147.5c-2.5 1.1-2.7 1.4-.9 1.4 1.2.1 3.7-.6 5.5-1.4 3.1-1.3 3.2-1.4.9-1.4-1.4 0-3.8.6-5.5 1.4zM79.8 155.9c-3 2.9-3.4 4.1-1.8 4.1.6 0 1-.6 1-1.3 0-.7 1.6-1.9 3.6-2.6 2.7-1 3.3-1.6 2.3-2.2-2-1.2-2.1-1.2-5.1 2zM145.5 147.6l-4 1.4 4.8-.5c5.4-.5 10.1-2.5 5.7-2.4-1.4.1-4.3.7-6.5 1.5zM137 151.3c-4.5.9-5 1.2-2.5 1.5 1.7.1 4.8-.4 7-1.2 4.7-1.7 3.2-1.8-4.5-.3zM104.5 163c1.8.8 1.8.9-.5 1-3.1.2-10.1 2.8-8 3 .8.1-.7.8-3.5 1.7-2.7.9-4.4 1.8-3.7 2 1.5.6 11.3-2.8 10.7-3.7-.2-.4 1.9-1.2 4.8-2 4.2-1 4.8-1.5 3.2-2.1-2.8-1.1-5.5-1-3 .1zM167.1 156.4c-1.6.9-1.9 1.4-1 1.8.8.2 2.2-.4 3.2-1.4 2-2.1 1.2-2.3-2.2-.4zM160.5 160.5c-2.3 1.1-2.5 1.4-1 1.4 1.1 0 3.1-.6 4.5-1.4 3.2-1.8.5-1.8-3.5 0zM138.7 169.9c-3.2.9-5.6 1.9-5.3 2.2.3.3-2.4 1.1-6 1.8-3.6.8-6.1 1.7-5.5 2 .6.4-1.8 1.3-5.4 2-3.6.7-6.4 1.6-6.1 1.9.8.7 16.6-3 16.1-3.8-.2-.4 2.5-1.2 6.1-2 4.4-.8 6.2-1.5 5.3-2.1-1-.6-.7-.9 1.1-1 1.4 0 4.3-.6 6.5-1.4 6.1-2 .4-1.7-6.8.4zM80.8 188.2c1.3 1.5 3.7 3.2 5.3 3.8 1.6.7 2.9 1.6 2.9 2 0 1.1 5.9 3.4 6.7 2.6.3-.3-.1-.6-1-.6-.8 0-2.2-.6-2.9-1.4-.8-.7-3-2.1-4.8-3.1-1.9-1-3.7-2.1-4-2.4-.3-.3-1.4-1.3-2.5-2.1-1.6-1.1-1.5-.9.3 1.2zM108.5 203.9c1.1.4 3.6 1.1 5.5 1.5 2.4.4 2.9.3 1.5-.3-1.1-.4-3.6-1.1-5.5-1.5-2.4-.4-2.9-.3-1.5.3zM86.5 224c.3.5.8 1 1.1 1 .2 0 .4-.5.4-1 0-.6-.5-1-1.1-1-.5 0-.7.4-.4 1zM121.4 20.5c0 6 .1 8.4.3 5.2.2-3.2.2-8.1 0-11-.2-2.9-.3-.3-.3 5.8zM140.5 15.5c1.7.8 3.7 1.4 4.5 1.4.8 0 0-.6-1.9-1.4-4.2-1.9-6.6-1.8-2.6 0zM148.3 19.7c2 .8 3.7 1.9 3.7 2.5 0 .5.5.6 1.1.2 1.3-.8-4.6-4.3-7.1-4.3-.8 0 .2.7 2.3 1.6zM156 24.5c3.3 1.9 4.9 1.9 2.4 0-1-.8-2.6-1.4-3.4-1.4-.9 0-.4.6 1 1.4zM160.1 27.4c.2.2 1.5.9 2.9 1.5 2.4 1.1 2.4 1.1.6-.3-1.6-1.3-4.9-2.4-3.5-1.2zM129 35.9c0 1 8.9 4.5 9.7 3.8.3-.3-1.3-1.1-3.6-1.8s-4.1-1.6-4.1-2.1c0-.4-.4-.8-1-.8-.5 0-1 .4-1 .9zM172 36.5c0 .2 1 1 2.3 1.6 2 1.1 2.1 1.1.8-.4-1.3-1.6-3.1-2.3-3.1-1.2zM124.8 38.7c.7.3 1.6.2 1.9-.1.4-.3-.2-.6-1.3-.5-1.1 0-1.4.3-.6.6zM177.5 42c1 1.1 2 1.8 2.3 1.5.7-.6-1.8-3.5-3.1-3.5-.5 0-.2.9.8 2zM121.4 51c0 5.8.1 8.1.3 5.2.2-2.8.2-7.6 0-10.5-.2-2.8-.3-.5-.3 5.3zM141 46.5c4.6 1.8 6.4 1.7 2.5 0-1.6-.8-3.7-1.4-4.5-1.4-.8 0 .1.7 2 1.4zM147 49.8c.8.5 2.6 1.3 4 1.6 1.7.5 2 .4 1-.2-.8-.5-2.6-1.3-4-1.6-1.7-.5-2-.4-1 .2zM161.1 58.4c.2.2 1.5.9 2.9 1.5 2.4 1.1 2.4 1.1.6-.3-1.6-1.3-4.9-2.4-3.5-1.2zM190.4 71.1l-.1 13.4 1-9.4c.5-5.4.6-11.1.1-13.4-.7-3.1-.9-.8-1 9.4zM168.3 63.6c1.5.8 2.7 1.9 2.7 2.4s1 1.4 2.3 2.1c1.4.7.8-.2-1.6-2.5-2-2-4.3-3.6-5-3.6-.6.1 0 .8 1.6 1.6zM126.5 64.5c1.7.8 3.9 1.4 5 1.4h2l-2-.8c-1.1-.4-3.3-1.1-5-1.4l-3-.6 3 1.4zM125.5 67.9c1.1.4 3.4 1.1 5 1.4l3 .6-3-1.4c-1.6-.8-3.9-1.4-5-1.4h-2l2 .8zM121.4 79c0 5.2.1 7.4.3 4.7.2-2.6.2-6.8 0-9.5-.2-2.6-.3-.4-.3 4.8zM136 72.5c1.9.7 4.2 1.3 5 1.3.8 0-.1-.6-2-1.3-1.9-.7-4.2-1.3-5-1.3-.8 0 .1.6 2 1.3zM151 76.6c0 .7 5.2 2.5 5.7 2 .2-.2-1-.8-2.6-1.4-1.7-.6-3.1-.9-3.1-.6zM153.9 81.5c1.8.8 3.6 1.5 4 1.5 1.3-.1-4.5-2.9-5.9-2.9-.8 0 0 .6 1.9 1.4zM160.3 85.6c2.7 1.5 4.7 3.1 9.4 7.7 1.8 1.6 2.5 1.9 3.5.9.9-.9.6-1.7-1.2-3.7-1.4-1.5-2.6-2.1-3-1.5-.7 1.2-4 .3-4-1.1 0-.5-1.3-1.5-3-2.4-3.8-2-5.4-1.9-1.7.1zM173 93c0 1.4-2.8.1-3.4-1.6-.4-1.2-.2-1.2 1.4-.4 1.1.6 2 1.5 2 2zM127 94.5c1.9.7 4.2 1.3 5 1.3.8 0-.1-.6-2-1.3-1.9-.7-4.2-1.3-5-1.3-.8 0 .1.6 2 1.3zM136.5 95.5c3.4 1.6 7.2 2.1 4.5.6-.8-.5-2.8-1.1-4.5-1.4l-3-.6 3 1.4zM121.4 104.5c0 4.9.1 7.1.3 4.8.2-2.3.2-6.4 0-9-.2-2.6-.3-.8-.3 4.2zM136.5 98.5c2.2.9 6.3 1.8 9 2 4.1.3 4.6.2 2.5-.7-1.4-.5-4.1-1.1-6-1.2-1.9-.2-4.8-.6-6.5-1-2.2-.4-1.9-.2 1 .9zM150.5 102c-.4.7-1.9.9-3.8.6-3-.6-3.1-.5-.7.5 1.4.6 3.9 1.2 5.5 1.4 1.7.1 3.9.6 5 .9 1.1.4.7 0-1-1-1.6-.9-3.3-2.1-3.6-2.7-.4-.5-.9-.5-1.4.3zM115.5 116.5c-2.2.7-3.3 1.3-2.5 1.4.8 0 3.5-.6 6-1.3 2.5-.8 3.6-1.5 2.5-1.5s-3.8.6-6 1.4zM183.1 140.4c-.7 9.8-1.5 18.6-1.8 19.5-.4 1.4-.3 1.4.5.1 1.1-1.6 3.7-32.3 3-35.6-.2-1-.9 6.1-1.7 16zM161.5 178.5c-1.6.7-2.3 1.4-1.4 1.4.8.1 2.4-.6 3.5-1.4 2.4-1.8 1.8-1.8-2.1 0zM69.3 184.5c0 2.2.2 3 .4 1.7.2-1.2.2-3 0-4-.3-.9-.5.1-.4 2.3zM135.8 190.7c.7.3 1.6.2 1.9-.1.4-.3-.2-.6-1.3-.5-1.1 0-1.4.3-.6.6zM128 192l-2.5.8h2.5c1.4 0 3.4-.3 4.5-.8l2-.9-2 .1c-1.1 0-3.1.4-4.5.8zM121.8 208.7c.6.2 1.8.2 2.5 0 .6-.3.1-.5-1.3-.5-1.4 0-1.9.2-1.2.5zM73.3 221.5c0 2.2.2 3 .4 1.7.2-1.2.2-3 0-4-.3-.9-.5.1-.4 2.3zM80.5 233.2c1.6 2.6 4.3 4.3 5.3 3.3.3-.3 0-.5-.6-.5s-2.3-1.2-3.8-2.8l-2.6-2.7 1.7 2.7zM107.5 248.9c1.1.4 3.6 1.1 5.5 1.5 2.4.4 2.9.3 1.5-.3-1.1-.4-3.6-1.1-5.5-1.5-2.4-.4-2.9-.3-1.5.3z"/></svg>