<?xml version="1.0" standalone="no"?>
<!DOCTYPE svg PUBLIC "-//W3C//DTD SVG 20010904//EN"
 "http://www.w3.org/TR/2001/REC-SVG-20010904/DTD/svg10.dtd">
<svg version="1.0" xmlns="http://www.w3.org/2000/svg"
 width="260.000000pt" height="260.000000pt" viewBox="0 0 260.000000 260.000000"
 preserveAspectRatio="xMidYMid meet">
<metadata>
Created by potrace 1.11, written by Peter Selinger 2001-2013
</metadata>
<g transform="translate(0.000000,260.000000) scale(0.100000,-0.100000)"
fill="#000000" stroke="none">
<path d="M1050 2578 c-114 -23 -209 -54 -310 -101 -307 -143 -568 -437 -675
-762 -85 -258 -86 -576 -2 -826 43 -127 124 -285 187 -363 84 -104 214 -235
263 -264 15 -9 27 -20 27 -24 0 -4 4 -8 9 -8 5 0 33 -16 62 -36 90 -60 273
-138 374 -159 129 -26 198 -34 315 -34 189 1 337 29 500 96 74 30 216 105 230
122 3 3 25 20 49 36 134 91 321 319 398 485 92 198 123 349 118 580 -3 173 -4
187 -36 313 -46 182 -131 348 -258 501 -39 48 -193 196 -203 196 -3 0 -13 6
-20 13 -53 53 -236 150 -365 193 -192 65 -468 82 -663 42z m196 -123 c4 -44
29 -67 64 -59 34 8 41 16 44 55 3 33 4 34 46 35 58 1 206 -30 300 -62 66 -23
236 -107 250 -123 3 -3 23 -18 45 -33 22 -15 59 -44 82 -65 23 -21 50 -45 60
-54 10 -9 33 -33 51 -55 17 -21 42 -50 53 -64 77 -90 165 -261 205 -398 27
-93 30 -112 40 -213 l6 -66 -36 0 c-42 0 -55 -9 -61 -46 -5 -24 14 -55 36 -58
11 -2 45 -6 60 -8 5 0 8 -5 5 -9 -3 -5 -7 -36 -11 -69 -6 -72 -46 -231 -71
-288 -10 -22 -18 -42 -18 -45 -5 -32 -114 -217 -151 -254 -9 -9 -14 -16 -11
-16 6 0 -81 -96 -113 -124 -13 -11 -36 -32 -50 -45 -39 -36 -147 -111 -159
-111 -6 0 -12 -3 -14 -7 -6 -15 -126 -72 -214 -102 -133 -45 -323 -75 -325
-52 -1 6 -3 16 -4 21 -1 6 -3 18 -4 28 -1 22 -46 45 -72 37 -18 -6 -31 -32
-35 -67 -1 -10 -2 -22 -3 -28 0 -5 -7 -8 -13 -5 -7 2 -38 7 -68 10 -92 11
-192 34 -245 56 -17 7 -36 13 -43 15 -39 8 -262 130 -262 144 0 5 -8 11 -17
14 -10 3 -39 25 -65 48 -26 24 -55 50 -65 59 -10 9 -35 36 -56 60 -20 24 -46
54 -57 66 -12 13 -17 23 -13 23 4 0 3 4 -2 8 -25 17 -143 222 -129 222 4 0 2
6 -4 13 -30 37 -88 267 -87 352 0 43 3 50 20 50 36 1 64 16 70 36 14 42 -15
72 -70 74 -17 0 -20 7 -19 50 0 28 3 66 6 85 14 78 31 150 37 150 3 0 7 10 8
23 0 12 5 33 11 47 5 14 11 30 12 35 2 8 57 114 105 202 7 13 15 20 18 16 4
-3 7 0 7 8 0 8 11 28 25 44 77 93 92 110 108 124 10 9 36 33 59 54 96 90 297
207 408 238 53 15 51 14 70 21 27 10 130 30 183 34 28 3 54 7 56 10 8 8 13 -5
17 -41z"/>
<path d="M1536 1739 l-407 -269 -263 -398 c-145 -218 -266 -407 -270 -419 -10
-30 27 -67 57 -57 12 4 200 125 419 270 l397 262 158 239 c87 131 161 240 166
241 4 2 7 8 7 12 0 5 44 76 99 157 54 81 101 157 105 169 8 25 -12 53 -40 58
-15 3 -144 -77 -428 -265z m-154 -540 c-4 -4 -45 -32 -92 -63 -47 -30 -89 -59
-95 -64 -5 -4 -28 -19 -50 -32 -22 -13 -41 -28 -43 -32 -2 -4 -7 -8 -12 -8 -4
0 -57 -33 -116 -73 -138 -93 -139 -94 -129 -76 5 8 50 75 101 150 50 75 93
140 95 145 2 5 40 62 83 127 l80 118 93 -93 c51 -51 89 -95 85 -99z"/>
</g>
</svg>
