<svg version="1" xmlns="http://www.w3.org/2000/svg" width="921.333" height="921.333" viewBox="0 0 691.000000 691.000000"><path d="M242.2 56.2c-.7.7-3.8 1.6-6.9 2-3.2.5-7.5 1.1-9.6 1.4-2 .4-4 1-4.3 1.5-.3.5-1.6.9-2.9.9-1.3 0-2.7.4-3 1-.3.5-1.5 1-2.6 1-2.4 0-13.3 5.5-15 7.6-.6.8-1.7 1.4-2.3 1.4-.7 0-2.8 1.6-4.7 3.6-1.8 2-4.6 4.2-6.1 5-1.6.8-2.8 2-2.8 2.7 0 .7-2.9 4.2-6.5 7.7s-6.5 7-6.5 7.6c0 .6-.7 1.7-1.5 2.4-.9.7-2.5 3.3-3.5 5.6-1.1 2.4-2.4 4.6-3 4.9-1.2.8-14 26.2-14 27.9 0 .7-9.9 21-22 45.1S103 230 103 231c0 .9-.9 2.5-2 3.5s-2 2.6-2 3.5c0 .9-6.7 15.1-15 31.5-13.3 26.6-15.5 30.5-20.7 35.7-3.1 3.2-6.3 5.8-6.9 5.8-.6 0-1.7.7-2.4 1.5s-6.3 4-12.6 7.1c-6.3 3.1-11.7 6-12 6.5-.3.6-1.7 1.4-3 1.9-3.1 1.2-7.4 8.2-7.4 12.1 0 4.7 3 8.8 8.2 11.5l4.7 2.4h43.6c45.5 0 45 0 50.3-4.4 2.4-2.1 5.2-7 5.2-9.3 0-1.7-1.9-5.1-4.7-8.3-4.8-5.7-6.3-9.7-6.3-17.7 0-8.2 2.1-15.8 6.6-23.6 1.3-2.3 2.4-4.9 2.4-5.7 0-.8 1.8-5.1 4.1-9.6 5.9-11.7 4.7-11.4 39-11.4 23.5 0 28.5.3 31 1.6 2.3 1.1 2.9 2 2.4 3.2-.7 1.7-2.1 7-3.2 12.5-.3 1.5-.9 3-1.4 3.3-.5.3-.9 1.4-.9 2.5 0 1-.4 2.7-.9 3.7-1.4 2.7-3.1 8.7-3.1 10.7 0 2.2-7 16.8-8.4 17.4-.5.2-2.6 1.9-4.6 3.7-2.1 1.9-4.2 3.4-4.9 3.4-.6 0-2.3 1.3-3.7 3-1.5 1.6-3.5 3.2-4.6 3.6-2.5.8-4.8 5.5-4.8 10.2 0 3.9 2.3 6.9 7.7 9.9 2.9 1.7 129.8 1.9 130.8.3.3-.6 1.6-1 2.9-1 2.7 0 7.2-4.5 7.8-8 .3-1.4.8-3.2 1.2-4.1.4-.9-.3-3-1.7-5-1.3-2-3.9-6.2-5.6-9.4-3-5.4-3.2-6.5-2.8-12.4.5-6.5 1.5-11.7 3.5-17.6.6-1.7 1.6-5 2.2-7.5.7-2.5 1.6-5.3 2.1-6.2.5-1 .9-2.8.9-4 0-2.3 1.6-8.1 3.1-11 .5-1 .9-2.6.9-3.6s.5-2.3 1.2-3c1-1 2.3-6.1 3.5-14.5.3-2 .9-4 1.4-4.3.5-.3.9-1.6.9-2.9 0-1.3.4-2.6.9-2.9.5-.3 1.1-1.8 1.4-3.3 1.3-6.4 2.6-11.1 4.6-16.3 1.2-3 2.1-6.4 2.1-7.5 0-1.1.9-4.5 2-7.5s2-6.7 2-8.2c0-1.5.5-3 1-3.3.6-.3 1-2 1-3.7 0-1.6.6-4.2 1.4-5.6 2-3.9 3.6-9.5 3.6-12.5 0-1.4.5-2.9 1-3.2.6-.3 1-1.7 1-3s.4-2.6.9-2.9c.5-.3 1.1-2.3 1.5-4.3 1.4-9.6 2-11.9 3.2-13.8 2.1-3 1.9-28.2-.2-33.2-6.8-16-8-18-15.8-26.1-4.4-4.5-8.4-8.2-8.9-8.2-.6 0-1.8-.7-2.7-1.5-2.2-2-13-7.5-14.7-7.5-.7 0-2.1-.4-3.1-.9-.9-.5-3.7-1.4-6.2-2.1-2.5-.6-5.9-1.6-7.6-2.1-1.7-.5-5.1-.9-7.5-.9-2.5 0-5.4-.7-6.5-1.5-2.5-1.9-35.3-2.2-37.2-.3zm-5.5 60.9c5.8 2.9 6.3 3.4 7.9 8.4 1 3.4 1.4 6.6 1 8.7-.4 1.8-1 5-1.3 7.1-.3 2-.9 4-1.4 4.3-.5.3-.9 1.7-.9 3.2 0 2.6-.7 4.7-5 16.2-1.1 3-2 6.5-2 7.7 0 1.3-.4 3.1-.9 4.1-.5.9-1.4 3.7-2.1 6.2-.7 2.5-1.6 5.3-2.1 6.2-.5 1-.9 2.6-.9 3.5 0 1-.7 2.7-1.5 3.7-.8 1.1-1.5 2.8-1.5 3.8s-.4 2.6-.9 3.6c-1.5 2.9-3.1 8.7-3.1 11 0 1.2-.9 3.1-2 4.2-1.9 1.9-3.3 2-29.4 2-15.1 0-28.1-.3-29-.6-2.4-.9-2-2.8 2.9-12.3 2.5-4.8 4.5-9.3 4.5-10 0-.6 2.9-7 6.5-14.2 3.6-7.1 6.5-13.4 6.5-14.1 0-1.5 17.7-36.5 20.6-40.8 1.4-1.9 3-4.3 3.6-5.2.7-.9 2.4-2.2 3.9-2.8 1.5-.7 3.5-2 4.5-3.1s3-1.9 4.8-1.9c1.7 0 3.8-.5 4.6-1 2.6-1.7 6.3-1.1 12.7 2.1zM453.4 122.4c-1.1.8-5.5 1.7-10 2-11.2.7-17.8 1.7-18.8 2.7-.6.5-1.8.9-2.8.9-1 0-2.6.4-3.6.9-.9.5-3.7 1.5-6.2 2.2-6.2 1.7-15.4 6.6-19 9.9-2.7 2.5-3 3.5-3 8.6 0 5.7 0 5.8 6.5 12.5l6.5 6.7v7c0 5.6-.5 8.1-2.5 11.8-1.4 2.6-2.5 5.6-2.5 6.7 0 2-3.6 13.9-5.1 16.9-.5 1-.9 2.7-.9 3.7 0 1.1-.4 2.2-.9 2.5-.5.3-1.1 2.3-1.4 4.3-.5 3.7-4 15-5.8 18.5-.5 1-.9 2.7-.9 3.7 0 1.1-.4 2.2-.9 2.5-.5.3-1.1 2.3-1.4 4.3-.5 3.7-4 15-5.8 18.5-.5 1-.9 2.7-.9 3.7 0 1.1-.4 2.3-1 2.6-.5.3-1 1.8-1 3.3 0 1.5-.9 5.2-2.1 8.2-1.1 3-2.7 7.7-3.6 10.5-.8 2.7-1.9 5.9-2.3 7-.4 1.1-1.4 4-2.1 6.5-2.5 8.6-6 14-11.7 17.4-1 .6-3.3 2-5.1 3.1-6 3.6-7.6 5.2-8.9 8.7-1 2.9-1 4.1.3 7.1 2.9 6.9 1.1 6.8 72.4 6.4 35-.2 65.1-.7 66.8-1.1 4.2-1 10.3-7.7 10.3-11.2 0-1.8-1.9-4.6-6.5-9.3l-6.5-6.8V319c0-6 1.1-11.2 3.1-15.2.5-1 .9-2.7.9-3.9 0-2.5 3.7-14.3 5.6-18.1.8-1.4 1.4-3.5 1.4-4.6 0-1.2.5-2.4 1-2.7.6-.3 1-1.8 1-3.1 0-2.8 5.4-20.2 7.6-24.7.8-1.6 1.4-3.8 1.4-5 0-1.2.9-4.7 2-7.7s2-6.5 2-7.7c0-1.2.9-3.8 2-5.8s2-4.2 2-4.9c0-5.4 10.4-19.1 18.2-24.2 7.5-4.8 22.8-2.2 22.8 3.9 0 1.3.6 2.9 1.2 3.5 1 1 1 1.7 0 3.2-.6 1.1-1.2 3.1-1.2 4.5 0 1.3-1.1 4.8-2.4 7.7-5.6 12.4-6.6 14.9-6.6 16.3 0 .8-.9 3-2 5s-2 4.4-2 5.3c0 1-.7 2.7-1.5 3.8-.8 1-1.5 2.6-1.5 3.6 0 .9-.8 3.3-1.9 5.5-1 2.1-2.9 6.9-4.1 10.8-1.2 3.8-2.9 7.9-3.6 9-.8 1.1-1.4 2.9-1.4 4.2 0 1.2-.4 2.5-1 2.8-.5.3-1 1.7-1 3s-.4 2.7-1 3c-.5.3-1 2.8-1 5.5s-.4 5.2-1 5.5c-.6.3-1 5.2-1 11s.4 10.7 1 11c.6.3 1 1.4 1 2.4 0 8.7 19.8 30.1 27.9 30.1 1.1 0 2.3.4 2.6 1 .3.5 1.7 1 3 1s2.7.4 3 1c.3.5 2.5 1 4.9 1 2.3 0 5.1.7 6.2 1.5 2.7 2 26.1 2.1 28.9.1 1.1-.7 4-1.6 6.5-1.9 6.8-.9 11.3-1.7 13.5-2.7 1.1-.5 3.2-1.1 4.6-1.4 1.4-.3 4.1-1.7 6-3 1.9-1.4 4.3-3 5.4-3.5 1.2-.5 2.7-1.6 3.4-2.5.7-.9 1.9-1.6 2.5-1.6 1.5 0 8.6-7.2 8.6-8.7 0-.6.7-1.6 1.5-2.3.8-.7 2.9-4 4.5-7.4 2.8-5.7 3.1-6.9 2.8-15.2-.3-8.5-.4-8.9-2.7-9.2-1.5-.3-3.4.6-5.5 2.5-6.5 5.9-10 6.6-13.4 3-2.3-2.4-3-8.1-1.2-9.2.6-.3 1-2 1-3.6s.9-4.7 2-6.9 2-5.3 2-6.9c0-1.6.5-3.3 1-3.6.6-.3 1-1.6 1-2.9 0-1.2.7-3.1 1.5-4.2.8-1 1.5-3.2 1.5-4.7s.9-4.5 2-6.7 2-5.1 2-6.5c0-1.4.4-3.3.9-4.3 1.8-3.5 5.3-14.8 5.8-18.5.3-2 .9-4 1.4-4.3.5-.3.9-1.6.9-2.9 0-1.3.5-2.7 1-3 .6-.3 1-1.5 1-2.6 0-1 .4-2.7.9-3.7 1.7-3.3 3.1-8.9 3.1-12.3 0-1.9.7-4.3 1.5-5.3 2.1-2.7 2-19.3 0-22-.8-1.1-1.5-3.2-1.5-4.7 0-1.6-.4-3.8-.9-5.1-2.8-7.3-4.5-10.8-5.1-10.8-.4 0-1.3-1.3-2-2.9-2.5-6.1-20.4-20.1-25.7-20.1-1.2 0-2.5-.5-2.8-1-.3-.6-2.5-1-4.8-1-2.3-.1-5.3-.7-6.7-1.5-3.5-2-18.8-2-21.4 0-1.1.8-4 1.5-6.5 1.5-4.3 0-9.6 1.3-13.3 3.1-1 .5-2.4.9-3.2.9-2 0-17.1 7.7-18.6 9.5-.7.8-1.8 1.5-2.4 1.5-1.4 0-18.6 17.4-21 21.2-1.8 3.1-5 3.7-6 1.2-.3-.9-.6-3.3-.6-5.4 0-2.1-.4-4.2-1-4.5-.5-.3-1-1.4-1-2.4 0-4.4-8.6-17.1-11.6-17.1-.6 0-1.7-.7-2.4-1.5-2-2.5-11.2-6.5-14.9-6.5-2-.1-4.7-.7-6.1-1.5-3.5-2-20.8-2-23.6-.1zM208 370c-.8.5-3.7 1-6.4 1s-6.3.4-8 .9c-3.4 1-10.2 2.8-15.6 4-6.6 1.6-12.5 4.8-16.3 9-2 2.2-3.7 4.7-3.7 5.4.1 2.5 2.8 6.1 6.5 8.6 4.7 3.2 7 8.9 5.6 13.5-.6 1.7-2.1 6.7-3.5 11.1-1.3 4.4-2.8 9.6-3.1 11.5-.4 1.9-1 3.9-1.4 4.5-.4.5-1.3 2.9-2.1 5.3-1.7 5.5-3.5 7-5.8 5-2.9-2.6-13.8-7.7-18.9-8.8-2.6-.6-12-1.1-20.8-1.1-19.5 0-22.7 1-44 12.8-3.8 2.2-22.3 21.5-26.1 27.3-9.4 14.6-16.2 32.7-19.6 52.5-1.4 8-1.4 34-.1 39 4.3 15.9 12.7 28.9 22.8 35.3 14.6 9.4 28.6 12.3 45.3 9.3 8.2-1.4 21.2-8.1 27.8-14.3 2.8-2.6 5.6-4.8 6.2-4.8.6 0 2.3 1.9 3.9 4.2 4.1 6 18.9 13.8 28.7 15 32.5 4.3 57.6-9 65.6-34.5.9-3 .9-4.5 0-6.8-1.7-4.1-4.9-4.2-9.1-.3-4.1 3.9-9.9 2.8-9.9-2 0-1.2.6-4.1 1.4-6.6.8-2.5 2.4-7.4 3.5-11 1.1-3.6 2.6-8.5 3.5-11 .8-2.5 2.2-7.4 3.2-11 .9-3.6 3.2-11.2 5-17 1.8-5.8 5.2-16.6 7.4-24 2.3-7.4 4.6-14.5 5.1-15.8.5-1.3.9-3.3.9-4.5 0-1.2.7-3.1 1.5-4.1.8-1.1 1.5-3 1.5-4.2 0-1.3.4-3.3.9-4.6.5-1.3 1.7-5 2.6-8.3 1.6-6.2 6.8-23.3 11.1-36.6 3.5-11 3.4-22.9-.2-29.2-4.4-8-13.4-13.7-21.4-13.7-2.1 0-4.2-.5-4.5-1-.8-1.3-17.5-1.3-19.5 0zm-63 101c3.5 1.8 4 2.5 4 5.5 0 1.9-.7 5.6-1.5 8.2-.8 2.6-1.9 6.1-2.4 7.8-2.8 9.7-6.8 22.1-9.3 29.5-1.7 4.7-3.2 9.6-3.5 11-1.7 9.4-10 32.4-13.2 36.8-2.3 3.2-2.6 3.3-8.5 3-5.6-.3-6.2-.5-8.4-3.8s-2.3-4.1-1.9-18.5c.4-16 3.1-31.8 6.5-38.2.7-1.2 1.2-3.1 1.2-4.1 0-2.4 8-18.7 12.5-25.7 4.2-6.4 7-8.9 12.5-11.4 5.8-2.5 7.2-2.5 12-.1zM316 441c-9.3 1.2-14.4 2.4-23.2 5.3-9.8 3.3-13.5 5.2-17.5 9-4.7 4.4-4.3 6.9 2.1 13.7 6.9 7.3 7.5 9.3 4.6 18.4-7.4 24-9 29.1-11.9 38.6-7.3 23.8-10.5 34-13.7 43.6-1.9 5.6-3.4 10.9-3.4 11.7 0 3.9-5.3 12.2-9.3 14.7-6.9 4.2-11.7 9-11.7 11.7 0 1.4 1.3 3.7 2.9 5.4l2.9 2.9h53.4c51.2 0 53.4-.1 56.5-2 5.4-3.2 5.6-9.5.5-12.7-1.5-.9-4.6-3.5-6.9-5.7-3.9-3.6-4.3-4.5-4.3-8.8 0-2.6.6-6.7 1.4-9 .7-2.4 3-9.7 5-16.3 7.1-22.9 11.9-38.1 14.8-47 1.6-5 3.5-11.3 4.2-14.1 2.4-9.1 6.2-14.4 10.6-14.4 3.1 0 7.8 4.6 10.9 10.7 5.4 10.8 12 18 18.9 20.7 5.3 2 18.4 2.1 24 .2 4.9-1.8 14.2-8.4 16.4-11.8.9-1.3 3-5.7 4.7-9.7 2.7-6.4 3.1-8.4 3.1-16.7 0-8.8-.2-10-3.6-16.7-4.5-9.1-10.1-14.9-18.4-18.8-6-2.9-7.4-3.2-17.5-3.3-10.9-.1-13.8.5-23 4.6-5.1 2.3-10.8 6.4-15.5 11.2-2.4 2.5-4.7 4.6-5.1 4.6-.4 0-1.2-1.4-1.9-3.1-1.8-4.3-9.4-11.6-15.3-14.5-4.4-2.3-6.5-2.6-16.6-2.9-6.4-.2-14.5.1-18.1.5zM558 441.1c-15.3 1.8-30.2 6.5-46.4 14.6-8.9 4.5-11.2 5.9-18 11.5-1.9 1.6-3.8 2.8-4.3 2.8-1.1 0-14.4 13.6-16.6 17-.9 1.4-3 4.4-4.7 6.8-7.6 10.7-13.9 26.5-17.2 42.7-1.4 6.9-.3 29.9 1.7 35.3 6.9 19.1 21.1 33.3 40.6 40.6 10.2 3.8 30.3 6.8 46.4 6.8 19.9 0 42.5-4.6 55.5-11.2 2.2-1.1 4.4-2 4.9-2 .6 0 2.5-1 4.4-2.3 1.9-1.2 6-3.8 9.2-5.7 3.3-1.9 10.3-7.7 15.6-12.9 20.4-19.6 32.4-43.9 34.5-70.1.3-3 1-6.5 1.5-7.6.8-1.5.8-2.7 0-4.2-.6-1.1-1.1-3.8-1.1-5.8 0-6.8-5.9-21.1-12.5-30.2-7.5-10.5-25.1-20.6-42.5-24.4-11.6-2.5-37-3.4-51-1.7zm21.7 29.6c2.7 2.4 4.7 9.3 4 13.4-.3 1.9-1.3 7.7-2.1 12.9s-1.9 11.1-2.5 13c-.6 1.9-1.7 6-2.5 9-1.5 5.7-4.5 14.9-7.6 23.5-1 2.7-2.1 6.1-2.5 7.5-.3 1.4-1.8 5.2-3.1 8.5-1.4 3.3-2.9 6.9-3.3 8-3 7.7-6.5 13.7-10.6 18.3-4.4 4.9-5 5.2-9.5 5.2-8.2 0-10.8-5.3-9.1-19 .6-4.1 1.4-9.5 2-12 .6-2.5 1.7-7.4 2.5-11 .8-3.6 2.3-9.2 3.4-12.5 1.1-3.3 3.4-10.3 5.1-15.5 8.5-26.5 15.5-40.7 23.5-47.8 4.2-3.7 9.2-4.3 12.3-1.5z"/></svg>